<?xml version="1.0" encoding="UTF-8" standalone="no"?>
<!DOCTYPE svg PUBLIC "-//W3C//DTD SVG 1.1//EN" "http://www.w3.org/Graphics/SVG/1.1/DTD/svg11.dtd">
<svg width="100%" height="100%" viewBox="0 0 1080 1080" version="1.1" xmlns="http://www.w3.org/2000/svg" xmlns:xlink="http://www.w3.org/1999/xlink" xml:space="preserve" xmlns:serif="http://www.serif.com/" style="fill-rule:evenodd;clip-rule:evenodd;stroke-linejoin:round;stroke-miterlimit:2;">
    <g transform="matrix(1.3757,0,0,1.25821,-212.325,-246.991)">
        <path d="M485.241,306.123C498.592,282.999 521.855,268.975 546.866,268.975C571.877,268.975 595.141,282.999 608.492,306.123C691.899,450.589 840.359,707.73 928.141,859.772C942.314,884.321 943.155,915.355 930.336,940.777C917.517,966.2 893.067,981.989 866.516,981.989L227.216,981.989C200.665,981.989 176.215,966.2 163.396,940.777C150.577,915.355 151.418,884.321 165.591,859.772C253.373,707.73 401.833,450.589 485.241,306.123Z" style="fill:rgb(20,191,150);"/>
    </g>
    <g transform="matrix(0.983228,0,0,0.983228,13.5479,46.9808)">
        <circle cx="535.433" cy="600.981" r="169.34" style="fill:white;"/>
    </g>
</svg>
